<?xml version="1.0" encoding="UTF-8" standalone="no"?>
<!-- Created with Inkscape (http://www.inkscape.org/) -->

<svg
   xmlns:dc="http://purl.org/dc/elements/1.1/"
   xmlns:cc="http://creativecommons.org/ns#"
   xmlns:rdf="http://www.w3.org/1999/02/22-rdf-syntax-ns#"
   xmlns:svg="http://www.w3.org/2000/svg"
   xmlns="http://www.w3.org/2000/svg"
   xmlns:sodipodi="http://sodipodi.sourceforge.net/DTD/sodipodi-0.dtd"
   xmlns:inkscape="http://www.inkscape.org/namespaces/inkscape"
   width="420mm"
   height="297mm"
   viewBox="0 0 420 297"
   version="1.1"
   id="svg8"
   inkscape:version="0.92.4 (5da689c313, 2019-01-14)"
   sodipodi:docname="drawing_placeholders.svg">
  <defs
     id="defs2" />
  <sodipodi:namedview
     id="base"
     pagecolor="#ffffff"
     bordercolor="#666666"
     borderopacity="1.0"
     inkscape:pageopacity="0.0"
     inkscape:pageshadow="2"
     inkscape:zoom="1.0021484"
     inkscape:cx="1352.4371"
     inkscape:cy="548.84055"
     inkscape:document-units="mm"
     inkscape:current-layer="layer6"
     showgrid="false"
     units="mm"
     inkscape:window-width="1920"
     inkscape:window-height="986"
     inkscape:window-x="-11"
     inkscape:window-y="-11"
     inkscape:window-maximized="1"
     objecttolerance="1" />
  <metadata
     id="metadata5">
    <rdf:RDF>
      <cc:Work
         rdf:about="">
        <dc:format>image/svg+xml</dc:format>
        <dc:type
           rdf:resource="http://purl.org/dc/dcmitype/StillImage" />
        <dc:title></dc:title>
      </cc:Work>
    </rdf:RDF>
  </metadata>
  <g
     inkscape:groupmode="layer"
     id="layer3"
     inkscape:label="BG"
     style="display:inline;opacity:0.70999995"
     sodipodi:insensitive="true">
    <rect
       id="rect68"
       width="420.84167"
       height="296.75412"
       x="-0.52803218"
       y="0.77391511"
       style="fill:#e0dfdf;fill-opacity:0.94117647;stroke-width:0.26458332" />
  </g>
  <g
     inkscape:label="Layer 1"
     inkscape:groupmode="layer"
     id="layer1"
     style="display:none"
     sodipodi:insensitive="true">
    <path
       style="fill:none;stroke:#000000;stroke-width:0.37264633px;stroke-linecap:butt;stroke-linejoin:miter;stroke-opacity:1"
       d="m 336.68072,205.65815 6.89618,34.4664 11.68522,24.54153 15.89955,-3.7895 10.72743,-6.67674 21.45486,4.15041 -7.08779,-37.71455 4.02278,-9.02262 -22.98732,-6.49628 z"
       id="path21"
       inkscape:connector-curvature="0" />
    <path
       style="fill:none;stroke:#000000;stroke-width:0.31549793px;stroke-linecap:butt;stroke-linejoin:miter;stroke-opacity:1"
       d="m 334.14426,247.45406 -22.4042,5.37822 -21.50453,6.11123 -20.13101,2.94713 -16.0216,11.16019 6.37298,7.01841 7.73172,-4.84174 c 8.18576,4.37025 11.72861,7.75675 17.49063,14.45701 l 11.99728,-0.61959 4.9589,-4.95677 15.83642,13.16635 23.74913,-17.28904 -4.97289,-24.59375 z"
       id="path23"
       inkscape:connector-curvature="0"
       sodipodi:nodetypes="cccccccccccccc" />
    <path
       style="fill:none;stroke:#000000;stroke-width:0.3531737px;stroke-linecap:butt;stroke-linejoin:miter;stroke-opacity:1"
       d="m 327.35482,208.56119 5.44122,28.3617 c -22.09333,5.99545 -28.3072,9.23974 -47.64804,14.80293 l -18.68618,3.13381 -15.59172,13.19516 -1.5587,-11.80235 c 0.0526,-18.46593 -5.94136,-28.05476 -14.24474,-46.45801 17.6498,1.20148 20.53324,-3.87042 43.59202,-2.04373 z"
       id="path27"
       inkscape:connector-curvature="0"
       sodipodi:nodetypes="ccccccccc" />
    <path
       style="fill:none;stroke:#000000;stroke-width:0.38106591px;stroke-linecap:butt;stroke-linejoin:miter;stroke-opacity:1"
       d="m 228.09553,211.68619 6.99723,14.28386 5.59778,37.42728 4.7981,11.21012 -18.39271,12.11414 -26.58947,-14.46465 -16.1936,-33.0879 1.39946,-16.81516 17.59303,-1.80809 z"
       id="path29"
       inkscape:connector-curvature="0" />
    <path
       style="fill:none;stroke:#000000;stroke-width:0.35257277px;stroke-linecap:butt;stroke-linejoin:miter;stroke-opacity:1"
       d="m 180.63114,228.53127 0.3817,17.18626 18.32186,32.75114 -16.41334,1.78348 -3.62619,8.59313 -16.03162,2.26988 -13.93224,-9.07953 -8.97008,0.4864 -17.55844,-11.02513 -5.53473,-20.59107 1.71768,-13.6193 18.70356,0.4864 25.19254,-9.4038 16.60419,-0.32426 z"
       id="path31"
       inkscape:connector-curvature="0" />
    <path
       style="fill:none;stroke:#000000;stroke-width:0.26458332px;stroke-linecap:butt;stroke-linejoin:miter;stroke-opacity:1"
       d="m 344.5888,118.78912 14.78491,-1.71611 12.54078,1.98012 23.1014,7.26045 19.27318,-2.11213 -12.32432,77.12634 -22.79921,-2.14965 c -16.98331,-1.2948 -5.51701,-0.90175 -26.56564,-2.04646 l 8.75393,-34.6479 -4.62029,-11.35269 -9.9006,-14.12486 -2.50814,-18.74515 z"
       id="path33"
       inkscape:connector-curvature="0"
       sodipodi:nodetypes="ccccccccccccc" />
    <path
       style="fill:none;stroke:#000000;stroke-width:0.26458332px;stroke-linecap:butt;stroke-linejoin:miter;stroke-opacity:1"
       d="m 339.30394,119.58117 -12.27674,1.58409 -10.69266,-2.24414 -10.42863,0.79205 c -0.91047,13.93041 -1.36828,29.02358 -3.96026,41.97856 12.44888,22.11024 10.75686,18.1418 22.74407,35.16267 l 23.71339,-0.70146 6.74178,-31.68904 -2.64014,-10.95666 -9.6366,-12.14474 c -2.0096,-7.13062 -2.69761,-14.45462 -3.56421,-21.78133 z"
       id="path35"
       inkscape:connector-curvature="0"
       sodipodi:nodetypes="ccccccccccc" />
    <path
       style="fill:none;stroke:#000000;stroke-width:0.35284704px;stroke-linecap:butt;stroke-linejoin:miter;stroke-opacity:1"
       d="m 210.0413,125.20845 11.06267,-0.5308 1.31882,12.87929 13.63607,17.83226 -21.32239,4.47835 -3.6955,-22.28135 z"
       id="path37"
       inkscape:connector-curvature="0"
       sodipodi:nodetypes="ccccccc" />
    <path
       style="fill:none;stroke:#000000;stroke-width:0.35246375px;stroke-linecap:butt;stroke-linejoin:miter;stroke-opacity:1"
       d="m 256.3586,155.48943 c -19.6516,2.5488 -19.81912,2.65326 -33.01876,6.46788 l 6.48905,42.31215 c 32.69776,1.92875 58.63198,-3.85158 92.08523,-4.91715 l -25.39107,-33.2556 3.57126,-46.03257 -19.854,-3.46099 -16.51225,37.127 z"
       id="path39"
       inkscape:connector-curvature="0"
       sodipodi:nodetypes="ccccccccc" />
    <path
       style="fill:none;stroke:#000000;stroke-width:0.33823705px;stroke-linecap:butt;stroke-linejoin:miter;stroke-opacity:1"
       d="m 133.81091,224.10107 16.32467,0.17096 21.15543,-9.91581 28.65145,0.17096 25.65307,-10.25772 -6.82972,-32.48281 c -23.16797,-2.69818 -32.17763,-3.40091 -48.974,-7.35138 l -40.97825,6.49657 8.32891,29.57645 z"
       id="path43"
       inkscape:connector-curvature="0"
       sodipodi:nodetypes="cccccccccc" />
    <path
       style="fill:none;stroke:#000000;stroke-width:0.26458332px;stroke-linecap:butt;stroke-linejoin:miter;stroke-opacity:1"
       d="m 208.34368,160.45836 -6.6004,-22.17735 1.98012,-16.89703 -2.50815,-12.14474 -13.59683,1.05606 -25.08153,8.71253 -15.84097,0.13201 -3.3002,13.86085 -0.39603,12.27675 -4.75228,14.52088 25.47755,-5.14831 h 12.01273 l 18.61314,6.07237 z"
       id="path45"
       inkscape:connector-curvature="0" />
    <path
       style="fill:none;stroke:#000000;stroke-width:0.33507627px;stroke-linecap:butt;stroke-linejoin:miter;stroke-opacity:1"
       d="m 126.75512,233.47347 1.05129,-20.25793 3.85473,-16.58917 -9.2864,-26.00033 c -13.89115,-8.19397 -9.707,-9.50351 -18.61865,-15.83011 l -37.800658,0.51702 -30.837789,10.68725 -23.478845,3.82828 1.576936,29.03104 16.820664,14.51553 29.786514,-0.63805 19.098462,-2.55218 16.470227,5.5829 16.645429,11.64431 15.9446,6.69948 z"
       id="path47"
       inkscape:connector-curvature="0"
       sodipodi:nodetypes="cccccccccccccccc" />
    <path
       style="fill:none;stroke:#000000;stroke-width:0.26458332px;stroke-linecap:butt;stroke-linejoin:miter;stroke-opacity:1"
       d="m 135.44548,119.68664 -8.44851,42.90262 -19.80121,-12.40876 -32.209964,0.66004 -4.22426,-10.29662 12.93679,-23.36543 -5.67635,-18.745143 42.144694,0.186688 c 7.20585,6.756915 10.64356,12.681865 15.27881,21.066605 z"
       id="path49"
       inkscape:connector-curvature="0"
       sodipodi:nodetypes="ccccccccc" />
    <path
       style="fill:none;stroke:#000000;stroke-width:0.20047432px;stroke-linecap:butt;stroke-linejoin:miter;stroke-opacity:1"
       d="m 24.388692,164.24674 41.56674,-12.10881 -3.190004,-11.69485 9.280017,-17.38702 -4.368723,-23.176362 c -15.098505,0.737062 -30.206719,1.040872 -45.318034,1.339092 l 0.483334,7.1411 -13.9200251,27.52945 z"
       id="path51"
       inkscape:connector-curvature="0"
       sodipodi:nodetypes="ccccccccc" />
    <path
       style="fill:none;stroke:#000000;stroke-width:0.30049846px;stroke-linecap:butt;stroke-linejoin:miter;stroke-opacity:1"
       d="M 121.00448,90.958062 143.7229,51.442702 120.60511,44.348575 131.68238,11.864936 83.520334,8.8779337 14.91566,27.259359 2.9793742,67.444765 3.0607915,90.609563 Z"
       id="path53"
       inkscape:connector-curvature="0"
       sodipodi:nodetypes="ccccccccc" />
    <path
       style="fill:none;stroke:#000000;stroke-width:0.19878471px;stroke-linecap:butt;stroke-linejoin:miter;stroke-opacity:1"
       d="m 134.51062,12.731967 -10.00584,29.756494 23.00626,8.271208 -21.83937,40.571768 7.37696,3.96025 5.88664,13.200803 8.42015,6.07237 2.30996,-25.345543 -3.89864,-11.827041 3.68828,-22.029134 13.06707,-7.840879 0.42152,-9.894443 -7.37657,-11.201255 V 7.3844327 Z"
       id="path55"
       inkscape:connector-curvature="0"
       sodipodi:nodetypes="ccccccccccccccc" />
    <path
       style="fill:none;stroke:#000000;stroke-width:0.30619422px;stroke-linecap:butt;stroke-linejoin:miter;stroke-opacity:1"
       d="m 160.76835,7.6063027 -0.0163,18.5358083 6.36584,10.76998 -0.86069,11.652624 -13.4251,9.632703 -3.20973,23.36543 5.41704,11.088669 -5.65744,22.177363 41.14373,-9.54988 c 9.30765,-15.190045 5.81496,-8.090361 11.84686,-22.000051 L 199.98665,64.665815 217.27115,48.560832 204.89551,29.55167 220.45345,20.83914 183.68013,5.7902207 Z"
       id="path57"
       inkscape:connector-curvature="0"
       sodipodi:nodetypes="cccccccccccccccc" />
    <path
       style="fill:none;stroke:#000000;stroke-width:0.26458332px;stroke-linecap:butt;stroke-linejoin:miter;stroke-opacity:1"
       d="m 196.3688,104.46198 48.35208,-5.040573 -13.06813,-12.50807 9.33438,-24.829442 23.84361,-5.195222 -0.26402,-24.539565 -10.82788,-14.374945 -30.8604,6.025464 -8.40095,7.84088 8.21426,16.801882 -17.73532,16.988568 3.36038,17.54863 z"
       id="path59"
       inkscape:connector-curvature="0"
       sodipodi:nodetypes="ccccccccccccc" />
    <path
       style="fill:none;stroke:#000000;stroke-width:0.30034113px;stroke-linecap:butt;stroke-linejoin:miter;stroke-opacity:1"
       d="m 268.15629,44.348575 19.24466,9.707753 c -6.45477,21.179061 -2.37297,34.774679 -9.53691,54.512782 l -23.66012,-8.587643 -19.0041,-14.56162 9.1412,-18.855451 24.7775,-7.654192 z"
       id="path61"
       inkscape:connector-curvature="0"
       sodipodi:nodetypes="cccccccc" />
    <path
       style="fill:none;stroke:#000000;stroke-width:0.16512404px;stroke-linecap:butt;stroke-linejoin:miter;stroke-opacity:1"
       d="m 291.32108,81.507026 8.49315,0.567393 7.77542,-6.69526 14.11542,4.312209 3.58865,10.326579 c -5.41753,7.3383 -6.80988,12.412233 -6.33995,20.993623 -10.78806,1.06119 -17.27473,-0.33846 -28.58966,0 l -6.75865,-5.04983 c 4.70304,-10.110541 2.41013,-15.507087 7.71562,-24.454714 z"
       id="path63"
       inkscape:connector-curvature="0"
       sodipodi:nodetypes="ccccccccc" />
    <path
       style="fill:none;stroke:#000000;stroke-width:0.25256008px;stroke-linecap:butt;stroke-linejoin:miter;stroke-opacity:1"
       d="m 286.93368,73.191806 3.28175,-22.589198 -5.01813,-37.524203 9.10067,-10.5478493 48.14002,12.3213803 35.40824,22.884233 24.77833,29.30579 -10.58493,17.425068 4.82884,35.983513 -29.06111,-5.50454 c -14.9706,-1.31047 -25.14622,-1.03923 -38.19468,-0.24913 -4.29523,-13.28198 4.84418,-31.226112 -1.21657,-39.010994 -12.93562,-6.91999 -18.54421,-6.564382 -31.36763,-1.817693 z"
       id="path65"
       inkscape:connector-curvature="0"
       sodipodi:nodetypes="cccccccccccccc" />
  </g>
  <g
     inkscape:groupmode="layer"
     id="layer5"
     inkscape:label="Creek"
     style="display:inline">
    <path
       style="opacity:0.7;fill:none;stroke:#00a0f8;stroke-width:2;stroke-linecap:butt;stroke-linejoin:miter;stroke-miterlimit:4;stroke-dasharray:none;stroke-opacity:1"
       d="m 406.84882,0.509899 -10.29662,46.994867 -52.0114,4.075035 -16.6328,10.973884 -37.49028,7.39245 -7.39246,41.186515 -12.14474,7.92048 -20.59325,23.15837 -14.25687,-9.95756 3.16819,-24.81752 -4.22425,-8.976544 -50.6911,-2.112129 -8.44851,10.560643 -21.12129,4.22426 -14.7849,-2.11213 -15.31294,-15.312936 -41.714543,11.088676 -6.336385,20.06523 -14.256869,-2.11213 -4.752293,-18.48113 -58.6115744,1.05606"
       id="path4975"
       inkscape:connector-curvature="0"
       sodipodi:nodetypes="ccccccccccccccccccccc" />
    <path
       style="fill:#00a0f8;fill-opacity:1;stroke:#ff00cb;stroke-width:0;stroke-linecap:butt;stroke-linejoin:miter;stroke-miterlimit:4;stroke-dasharray:none;stroke-opacity:1"
       d="m 242.13493,149.10865 16.42737,-0.3386 19.22882,-33.23039 -16.05513,-3.36038 -8.961,22.5892 -8.58763,-8.40094 -1.12013,-19.41551 -17.17526,3.36038 1.86687,8.77431 3.63851,8.77536 4.52384,6.13837 z"
       id="path4606"
       inkscape:connector-curvature="0"
       sodipodi:nodetypes="cccccccccccc" />
    <path
       style="opacity:0.85;fill:none;stroke:#32adf2;stroke-width:2;stroke-linecap:butt;stroke-linejoin:miter;stroke-miterlimit:4;stroke-dasharray:none;stroke-opacity:0.90196078"
       d="m 275.63281,0.24588275 10.03263,50.42707725 -2.37615,13.992854 8.18449,5.808354"
       id="path5213"
       inkscape:connector-curvature="0"
       sodipodi:nodetypes="cccc" />
  </g>
  <g
     inkscape:groupmode="layer"
     id="layer2"
     inkscape:label="Lines">
    <path
       style="opacity:1;fill:none;stroke:#fcd6a4;stroke-width:3;stroke-linecap:butt;stroke-linejoin:miter;stroke-miterlimit:4;stroke-dasharray:none;stroke-opacity:1"
       d="m 420.31364,120.37321 -26.53361,2.64016 -24.02546,-6.6004 -15.31295,-0.52803 -27.58969,2.37614 -14.12486,-3.69622 -10.56063,1.58409 -27.58969,-4.22425 -29.43779,-9.50458 -58.47957,5.41233 -25.34555,7.92048 -21.25329,0.92406 -18.08511,-21.781332 -103.62632,0.792046"
       id="path3775"
       inkscape:connector-curvature="0" />
    <path
       style="opacity:1;fill:none;stroke:#fcd6a4;stroke-width:3;stroke-linecap:butt;stroke-linejoin:miter;stroke-miterlimit:4;stroke-dasharray:none;stroke-opacity:1"
       d="m 278.80101,112.45273 6.3364,-26.137596 1.05605,-17.953096 2.90418,-17.161047 -9.50458,-51.48314047"
       id="path4582"
       inkscape:connector-curvature="0" />
    <path
       style="opacity:1;fill:none;stroke:#fcd6a4;stroke-width:3;stroke-linecap:butt;stroke-linejoin:miter;stroke-miterlimit:4;stroke-dasharray:none;stroke-opacity:1"
       d="M 246.85506,103.21217 234.18229,86.579151 243.95088,63.873765 270.39001,58.174771 268.80592,1.1019921"
       id="path4584"
       inkscape:connector-curvature="0"
       sodipodi:nodetypes="ccccc" />
    <path
       style="opacity:1;fill:none;stroke:#fcd6a4;stroke-width:3;stroke-linecap:butt;stroke-linejoin:miter;stroke-miterlimit:4;stroke-dasharray:none;stroke-opacity:1"
       d="m 192.20373,106.64438 13.72883,-23.761456 -3.96024,-18.21711 17.14228,-17.08372 -8.36568,-17.657047 15.24887,-10.93402 -4.22426,-19.27317647"
       id="path4586"
       inkscape:connector-curvature="0"
       sodipodi:nodetypes="ccccccc" />
    <path
       style="opacity:1;fill:none;stroke:#fcd6a4;stroke-width:3;stroke-linecap:butt;stroke-linejoin:miter;stroke-miterlimit:4;stroke-dasharray:none;stroke-opacity:1"
       d="M 121.44741,94.235618 145.47288,50.67296 122.50347,43.280509 136.76034,-0.01813336"
       id="path4588"
       inkscape:connector-curvature="0" />
    <path
       style="opacity:1;fill:none;stroke:#fcd6a4;stroke-width:3;stroke-linecap:butt;stroke-linejoin:miter;stroke-miterlimit:4;stroke-dasharray:none;stroke-opacity:1"
       d="m 158.14565,-0.28214947 -0.79205,24.81751447 5.21626,10.82466 -1.01077,10.405988 -10.54188,10.451285 -4.22425,21.121288 5.54433,15.048918 -3.4775,22.113286 -10.71098,12.24013 -13.06813,40.69789 8.58763,30.99014 -1.97794,25.32635 -8.47657,9.9576 -7.09412,8.58763 1.30681,54.69946"
       id="path4590"
       inkscape:connector-curvature="0"
       sodipodi:nodetypes="ccccccccccccccc" />
    <path
       style="opacity:1;fill:none;stroke:#fcd6a4;stroke-width:3;stroke-linecap:butt;stroke-linejoin:miter;stroke-miterlimit:4;stroke-dasharray:none;stroke-opacity:1"
       d="m 214.61855,158.55397 -42.57065,2.94719 -47.4323,5.86692 -20.06522,-15.31293 -35.906193,1.05606 -38.455754,3.32513 -28.0099667,12.19051"
       id="path4592"
       inkscape:connector-curvature="0"
       sodipodi:nodetypes="ccccccc" />
    <path
       style="opacity:1;fill:none;stroke:#fcd6a4;stroke-width:3;stroke-linecap:butt;stroke-linejoin:miter;stroke-miterlimit:4;stroke-dasharray:none;stroke-opacity:1"
       d="m 204.08445,106.64438 1.91874,14.11614 1.44193,31.48439 10.7205,10.78955 9.90999,10.61144 0.29832,33.58861 13.20081,23.49744 11.88072,67.32411"
       id="path4594"
       inkscape:connector-curvature="0"
       sodipodi:nodetypes="cccccccc" />
    <path
       style="opacity:1;fill:none;stroke:#fcd6a4;stroke-width:3;stroke-linecap:butt;stroke-linejoin:miter;stroke-miterlimit:4;stroke-dasharray:none;stroke-opacity:1"
       d="m 420.31364,207.49853 -44.3547,-5.80836 -45.9118,5.89118 -102.20124,0.18119 -27.45767,9.50458 -30.36186,1.32008 -40.39446,16.10499 -37.490289,-6.24807 -71.999069,-0.75453 -17.8359638,-21.37752 0.805316,-38.67998"
       id="path4596"
       inkscape:connector-curvature="0"
       sodipodi:nodetypes="ccccccccccc" />
    <path
       style="opacity:1;fill:none;stroke:#fcd6a4;stroke-width:3;stroke-linecap:butt;stroke-linejoin:miter;stroke-miterlimit:4;stroke-dasharray:none;stroke-opacity:1"
       d="m 349.47915,298.49349 -11.948,-60.48678 -7.93422,-31.83023 0.19476,-0.0822 -30.34482,-42.01581 1.12012,-47.88536"
       id="path4598"
       inkscape:connector-curvature="0"
       sodipodi:nodetypes="cccccc" />
    <path
       style="opacity:1;fill:none;stroke:#fcd6a4;stroke-width:3;stroke-linecap:butt;stroke-linejoin:miter;stroke-miterlimit:4;stroke-dasharray:none;stroke-opacity:1"
       d="m 345.37204,206.26982 4.29381,-36.8708 -1.68021,-24.92278 1.40017,-28.00315"
       id="path4600"
       inkscape:connector-curvature="0"
       sodipodi:nodetypes="cccc" />
    <path
       style="opacity:1;fill:none;stroke:#fcd6a4;stroke-width:3;stroke-linecap:butt;stroke-linejoin:miter;stroke-miterlimit:4;stroke-dasharray:none;stroke-opacity:1"
       d="m 338.27788,243.42065 -50.03225,12.50807 -20.16226,2.42694 -18.66876,15.12169 -23.33595,17.36196 -32.11027,-12.32139 -5.41393,-36.03071 -0.56007,-24.26938"
       id="path4602"
       inkscape:connector-curvature="0"
       sodipodi:nodetypes="cccccccc" />
    <path
       style="opacity:1;fill:none;stroke:#fcd6a4;stroke-width:3;stroke-linecap:butt;stroke-linejoin:miter;stroke-miterlimit:4;stroke-dasharray:none;stroke-opacity:1"
       d="m 70.941281,95.377401 5.227251,22.402509 -8.587629,20.53563 3.360378,13.81488"
       id="path4604"
       inkscape:connector-curvature="0" />
    <path
       style="opacity:1;fill:none;stroke:#fcd6a4;stroke-width:3;stroke-linecap:butt;stroke-linejoin:miter;stroke-miterlimit:4;stroke-dasharray:none;stroke-opacity:1"
       d="m 205.26299,119.27341 20.8676,0.38939 3.68846,8.56109 4.72343,6.43262 6.34307,15.21101 -10.35974,0.2077 -18.35538,8.77595"
       id="path4608"
       inkscape:connector-curvature="0"
       sodipodi:nodetypes="ccccccc" />
    <path
       style="fill:none;stroke:#fcd6a4;stroke-width:2;stroke-linecap:butt;stroke-linejoin:miter;stroke-miterlimit:4;stroke-dasharray:none;stroke-opacity:1"
       d="M 349.55734,117.46903 335.03643,101.89208 283.02528,84.46702"
       id="path5216"
       inkscape:connector-curvature="0"
       sodipodi:nodetypes="ccc" />
  </g>
  <g
     inkscape:groupmode="layer"
     id="layer4"
     inkscape:label="Placeholders"
     style="opacity:0.85">
    <rect
       style="fill:#dedede;fill-opacity:1;stroke:#ffffff;stroke-width:0;stroke-miterlimit:4;stroke-dasharray:none;stroke-opacity:1"
       id="florey"
       width="55.10981"
       height="35.11414"
       x="146.7986"
       y="120.90122" />
    <rect
       style="fill:#dedede;fill-opacity:1;stroke:#ffffff;stroke-width:0;stroke-miterlimit:4;stroke-dasharray:none;stroke-opacity:1"
       id="page"
       width="41.714542"
       height="31.153898"
       x="182.44417"
       y="174.76054" />
    <rect
       style="fill:#dedede;fill-opacity:1;stroke:#ffffff;stroke-width:0;stroke-miterlimit:4;stroke-dasharray:none;stroke-opacity:1"
       id="scullin"
       width="41.714546"
       height="31.153898"
       x="136.49632"
       y="178.9848" />
    <rect
       style="fill:#dedede;fill-opacity:1;stroke:#ffffff;stroke-width:0;stroke-miterlimit:4;stroke-dasharray:none;stroke-opacity:1"
       id="higgins"
       width="30.097839"
       height="26.665625"
       x="100.06892"
       y="194.56401" />
    <rect
       style="fill:#dedede;fill-opacity:1;stroke:#ffffff;stroke-width:0;stroke-miterlimit:4;stroke-dasharray:none;stroke-opacity:1"
       id="hawker"
       width="64.385628"
       height="48.654015"
       x="121.58331"
       y="240.03659" />
    <rect
       style="fill:#dedede;fill-opacity:1;stroke:#ffffff;stroke-width:0;stroke-miterlimit:4;stroke-dasharray:none;stroke-opacity:1"
       id="weetangera"
       width="37.858173"
       height="42.970566"
       x="196.692"
       y="226.83691" />
    <rect
       style="fill:#dedede;fill-opacity:1;stroke:#ffffff;stroke-width:0;stroke-miterlimit:4;stroke-dasharray:none;stroke-opacity:1"
       id="cook"
       width="44.882744"
       height="33.530045"
       x="276.16086"
       y="261.22583" />
    <rect
       style="fill:#dedede;fill-opacity:1;stroke:#ffffff;stroke-width:0;stroke-miterlimit:4;stroke-dasharray:none;stroke-opacity:1"
       id="jamison"
       width="69.700256"
       height="49.503014"
       x="284.8768"
       y="208.95062" />
    <rect
       style="fill:#dedede;fill-opacity:1;stroke:#ffffff;stroke-width:0;stroke-miterlimit:4;stroke-dasharray:none;stroke-opacity:1"
       id="macquarie"
       width="33.266037"
       height="31.681932"
       x="246.07541"
       y="211.32678" />
    <rect
       style="fill:#dedede;fill-opacity:1;stroke:#ffffff;stroke-width:0;stroke-miterlimit:4;stroke-dasharray:none;stroke-opacity:1"
       id="aranda"
       width="44.882744"
       height="33.530045"
       x="366.20865"
       y="222.9435" />
    <rect
       style="fill:#dedede;fill-opacity:1;stroke:#ffffff;stroke-width:0;stroke-miterlimit:4;stroke-dasharray:none;stroke-opacity:1"
       id="kippax"
       width="53.475868"
       height="68.151405"
       x="45.541164"
       y="157.41182" />
    <rect
       style="fill:#dedede;fill-opacity:1;stroke:#ffffff;stroke-width:0;stroke-miterlimit:4;stroke-dasharray:none;stroke-opacity:1"
       id="holt"
       width="38.018322"
       height="26.665625"
       x="4.5832367"
       y="177.85966" />
    <rect
       style="fill:#dedede;fill-opacity:1;stroke:#ffffff;stroke-width:0;stroke-miterlimit:4;stroke-dasharray:none;stroke-opacity:1"
       id="spence"
       width="41.714546"
       height="31.153898"
       x="166.07288"
       y="10.013355" />
    <rect
       style="fill:#dedede;fill-opacity:1;stroke:#ffffff;stroke-width:0;stroke-miterlimit:4;stroke-dasharray:none;stroke-opacity:1"
       id="melba"
       width="41.714546"
       height="31.153898"
       x="155.24147"
       y="58.593452" />
    <rect
       style="fill:#dedede;fill-opacity:1;stroke:#ffffff;stroke-width:0;stroke-miterlimit:4;stroke-dasharray:none;stroke-opacity:1"
       id="evatt"
       width="41.71455"
       height="31.153898"
       x="223.62503"
       y="23.208487" />
    <rect
       style="fill:#dedede;fill-opacity:1;stroke:#ffffff;stroke-width:0;stroke-miterlimit:4;stroke-dasharray:none;stroke-opacity:1"
       id="mckellar"
       width="35.642181"
       height="28.777754"
       x="245.00694"
       y="68.890083" />
    <rect
       style="fill:#dedede;fill-opacity:1;stroke:#ffffff;stroke-width:0;stroke-miterlimit:4;stroke-dasharray:none;stroke-opacity:1"
       id="charnwood"
       width="69.858131"
       height="42.02158"
       x="50.665218"
       y="49.705887" />
    <rect
       style="fill:#dedede;fill-opacity:1;stroke:#ffffff;stroke-width:0;stroke-miterlimit:4;stroke-dasharray:none;stroke-opacity:1"
       id="dunlop"
       width="41.714546"
       height="31.153898"
       x="5.5341296"
       y="22.159229" />
    <rect
       style="fill:#dedede;fill-opacity:1;stroke:#ffffff;stroke-width:0;stroke-miterlimit:4;stroke-dasharray:none;stroke-opacity:1"
       id="macgregor"
       width="41.714546"
       height="31.153898"
       x="11.352693"
       y="106.9084" />
    <rect
       style="fill:#dedede;fill-opacity:1;stroke:#ffffff;stroke-width:0;stroke-miterlimit:4;stroke-dasharray:none;stroke-opacity:1"
       id="totterdell"
       width="21.257658"
       height="19.268148"
       x="208.45511"
       y="130.02536" />
    <rect
       style="fill:#dedede;fill-opacity:1;stroke:#ffffff;stroke-width:0;stroke-miterlimit:4;stroke-dasharray:none;stroke-opacity:1"
       id="giralang"
       width="38.282341"
       height="25.60956"
       x="293.85562"
       y="29.021381" />
    <rect
       style="fill:#dedede;fill-opacity:1;stroke:#ffffff;stroke-width:0;stroke-miterlimit:4;stroke-dasharray:none;stroke-opacity:1"
       id="charnwood_spalding"
       width="41.71455"
       height="31.153898"
       x="64.929443"
       y="13.545067"
       inkscape:label="#charnwood spalding" />
    <rect
       style="fill:#dedede;fill-opacity:1;stroke:#ffffff;stroke-width:0;stroke-miterlimit:4;stroke-dasharray:none;stroke-opacity:1"
       id="belconnen"
       width="88.373543"
       height="54.481125"
       x="232.34431"
       y="151.56143"
       inkscape:label="#belconnen" />
    <rect
       style="fill:#dedede;fill-opacity:1;stroke:#ffffff;stroke-width:0;stroke-miterlimit:4;stroke-dasharray:none;stroke-opacity:1"
       id="fraser"
       width="41.714554"
       height="31.153898"
       x="111.15078"
       y="3.9421179"
       inkscape:label="#fraser" />
    <rect
       style="fill:#dedede;fill-opacity:1;stroke:#ffffff;stroke-width:0;stroke-miterlimit:4;stroke-dasharray:none;stroke-opacity:1"
       id="kaleen_gwydir_square"
       width="53.595276"
       height="32.47398"
       x="328.06744"
       y="64.008057" />
    <rect
       style="fill:#dedede;fill-opacity:1;stroke:#ffffff;stroke-width:0;stroke-miterlimit:4;stroke-dasharray:none;stroke-opacity:1"
       id="kaleen_plaza"
       width="51.219131"
       height="35.642174"
       x="343.13196"
       y="9.5942078" />
    <rect
       style="fill:#dedede;fill-opacity:1;stroke:#ffffff;stroke-width:0;stroke-miterlimit:4;stroke-dasharray:none;stroke-opacity:1"
       id="kaleen_ashburton_cct"
       width="34.586117"
       height="47.786911"
       x="384.80347"
       y="50.804985" />
    <rect
       style="fill:#dedede;fill-opacity:1;stroke:#ffffff;stroke-width:0;stroke-miterlimit:4;stroke-dasharray:none;stroke-opacity:1"
       id="bruce"
       width="68.719246"
       height="57.009655"
       x="350.93781"
       y="129.48178" />
    <rect
       style="fill:#dedede;fill-opacity:1;stroke:#ffffff;stroke-width:0;stroke-miterlimit:4;stroke-dasharray:none;stroke-opacity:1"
       id="uc"
       width="44.162998"
       height="27.943153"
       x="302.49014"
       y="120.56334" />
    <rect
       style="opacity:0.85;fill:#dedede;fill-opacity:1;stroke:#ffffff;stroke-width:0;stroke-miterlimit:4;stroke-dasharray:none;stroke-opacity:1"
       id="latham"
       width="41.71455"
       height="31.153898"
       x="85.277199"
       y="112.98077" />
  </g>
  <g
     inkscape:groupmode="layer"
     id="layer6"
     inkscape:label="Labels">
    <text
       xml:space="preserve"
       style="font-style:normal;font-weight:normal;font-size:10.58333302px;line-height:1.25;font-family:sans-serif;letter-spacing:0px;word-spacing:0px;fill:#000000;fill-opacity:1;stroke:none;stroke-width:0.26458332"
       x="166.3324"
       y="238.3884"
       id="text4997"><tspan
         sodipodi:role="line"
         id="tspan4995"
         x="166.3324"
         y="238.3884"
         style="font-size:4.93888903px;stroke-width:0.26458332">Hawker</tspan></text>
    <text
       xml:space="preserve"
       style="font-style:normal;font-weight:normal;font-size:10.58333302px;line-height:1.25;font-family:sans-serif;letter-spacing:0px;word-spacing:0px;fill:#000000;fill-opacity:1;stroke:none;stroke-width:0.26458332"
       x="197.15793"
       y="274.81335"
       id="text4997-3"><tspan
         sodipodi:role="line"
         id="tspan4995-2"
         x="197.15793"
         y="274.81335"
         style="font-size:4.93888903px;stroke-width:0.26458332">Weetangera</tspan></text>
    <text
       xml:space="preserve"
       style="font-style:normal;font-weight:normal;font-size:10.58333302px;line-height:1.25;font-family:sans-serif;letter-spacing:0px;word-spacing:0px;fill:#000000;fill-opacity:1;stroke:none;stroke-width:0.26458332"
       x="247.06261"
       y="248.14772"
       id="text4997-7"><tspan
         sodipodi:role="line"
         id="tspan4995-0"
         x="247.06261"
         y="248.14772"
         style="font-size:4.93888903px;stroke-width:0.26458332">Macquarie</tspan></text>
    <text
       xml:space="preserve"
       style="font-style:normal;font-weight:normal;font-size:10.58333302px;line-height:1.25;font-family:sans-serif;letter-spacing:0px;word-spacing:0px;fill:#000000;fill-opacity:1;stroke:none;stroke-width:0.26458332"
       x="-291.16565"
       y="277.48566"
       id="text4997-5"
       transform="rotate(-89.50373)"><tspan
         sodipodi:role="line"
         id="tspan4995-3"
         x="-291.16565"
         y="277.48566"
         style="font-size:4.93888903px;stroke-width:0.26458332">Cook</tspan></text>
    <text
       xml:space="preserve"
       style="font-style:normal;font-weight:normal;font-size:10.58333302px;line-height:1.25;font-family:sans-serif;letter-spacing:0px;word-spacing:0px;fill:#000000;fill-opacity:1;stroke:none;stroke-width:0.26458332"
       x="202.4769"
       y="-360.57169"
       id="text4997-2"
       transform="rotate(91.272827)"><tspan
         sodipodi:role="line"
         id="tspan4995-4"
         x="202.4769"
         y="-360.57169"
         style="font-size:4.93888903px;stroke-width:0.26458332">Jamison</tspan></text>
    <text
       xml:space="preserve"
       style="font-style:normal;font-weight:normal;font-size:10.58333302px;line-height:1.25;font-family:sans-serif;letter-spacing:0px;word-spacing:0px;fill:#000000;fill-opacity:1;stroke:none;stroke-width:0.26458332"
       x="391.73779"
       y="260.55649"
       id="text4997-1"><tspan
         sodipodi:role="line"
         id="tspan4995-1"
         x="391.73779"
         y="260.55649"
         style="font-size:4.93888903px;stroke-width:0.26458332">Aranda</tspan></text>
    <text
       xml:space="preserve"
       style="font-style:normal;font-weight:normal;font-size:10.58333302px;line-height:1.25;font-family:sans-serif;letter-spacing:0px;word-spacing:0px;fill:#000000;fill-opacity:1;stroke:none;stroke-width:0.26458332"
       x="352.00681"
       y="191.6494"
       id="text4997-8"><tspan
         sodipodi:role="line"
         id="tspan4995-37"
         x="352.00681"
         y="191.6494"
         style="font-size:4.93888903px;stroke-width:0.26458332">Bruce</tspan></text>
    <text
       xml:space="preserve"
       style="font-style:normal;font-weight:normal;font-size:10.58333302px;line-height:1.25;font-family:sans-serif;letter-spacing:0px;word-spacing:0px;fill:#000000;fill-opacity:1;stroke:none;stroke-width:0.26458332"
       x="338.80258"
       y="153.89622"
       id="text4997-83"><tspan
         sodipodi:role="line"
         id="tspan4995-7"
         x="338.80258"
         y="153.89622"
         style="font-size:4.93888903px;stroke-width:0.26458332">UC</tspan></text>
    <text
       xml:space="preserve"
       style="font-style:normal;font-weight:normal;font-size:10.58333302px;line-height:1.25;font-family:sans-serif;letter-spacing:0px;word-spacing:0px;fill:#000000;fill-opacity:1;stroke:none;stroke-width:0.26458332"
       x="266.9902"
       y="150.72578"
       id="text4997-30"><tspan
         sodipodi:role="line"
         id="tspan4995-10"
         x="266.9902"
         y="150.72578"
         style="font-size:4.93888903px;stroke-width:0.26458332">Belconnen</tspan></text>
    <text
       xml:space="preserve"
       style="font-style:normal;font-weight:normal;font-size:10.58333302px;line-height:1.25;font-family:sans-serif;letter-spacing:0px;word-spacing:0px;fill:#000000;fill-opacity:1;stroke:none;stroke-width:0.26458332"
       x="5.8816595"
       y="176.59824"
       id="text4997-9"><tspan
         sodipodi:role="line"
         id="tspan4995-6"
         x="5.8816595"
         y="176.59824"
         style="font-size:4.93888903px;stroke-width:0.26458332">Holt</tspan></text>
    <text
       xml:space="preserve"
       style="font-style:normal;font-weight:normal;font-size:10.58333302px;line-height:1.25;font-family:sans-serif;letter-spacing:0px;word-spacing:0px;fill:#000000;fill-opacity:1;stroke:none;stroke-width:0.26458332"
       x="158.45139"
       y="-97.846146"
       id="text4997-81"
       transform="rotate(89.205772)"><tspan
         sodipodi:role="line"
         id="tspan4995-5"
         x="158.45139"
         y="-97.846146"
         style="font-size:4.93888903px;stroke-width:0.26458332">Kippax</tspan></text>
    <text
       xml:space="preserve"
       style="font-style:normal;font-weight:normal;font-size:10.58333302px;line-height:1.25;font-family:sans-serif;letter-spacing:0px;word-spacing:0px;fill:#000000;fill-opacity:1;stroke:none;stroke-width:0.26458332"
       x="100.6623"
       y="225.9715"
       id="text4997-6"><tspan
         sodipodi:role="line"
         id="tspan4995-31"
         x="100.6623"
         y="225.9715"
         style="font-size:4.93888903px;stroke-width:0.26458332">Higgins</tspan></text>
    <text
       xml:space="preserve"
       style="font-style:normal;font-weight:normal;font-size:10.58333302px;line-height:1.25;font-family:sans-serif;letter-spacing:0px;word-spacing:0px;fill:#000000;fill-opacity:1;stroke:none;stroke-width:0.26458332"
       x="136.43422"
       y="177.91832"
       id="text4997-75"><tspan
         sodipodi:role="line"
         id="tspan4995-05"
         x="136.43422"
         y="177.91832"
         style="font-size:4.93888903px;stroke-width:0.26458332">Scullin</tspan></text>
    <text
       xml:space="preserve"
       style="font-style:normal;font-weight:normal;font-size:10.58333302px;line-height:1.25;font-family:sans-serif;letter-spacing:0px;word-spacing:0px;fill:#000000;fill-opacity:1;stroke:none;stroke-width:0.26458332"
       x="182.37303"
       y="210.65857"
       id="text4997-93"><tspan
         sodipodi:role="line"
         id="tspan4995-376"
         x="182.37303"
         y="210.65857"
         style="font-size:4.93888903px;stroke-width:0.26458332">Page</tspan></text>
    <text
       xml:space="preserve"
       style="font-style:normal;font-weight:normal;font-size:10.58333302px;line-height:1.25;font-family:sans-serif;letter-spacing:0px;word-spacing:0px;fill:#000000;fill-opacity:1;stroke:none;stroke-width:0.26458332"
       x="186.4743"
       y="119.43874"
       id="text4997-16"><tspan
         sodipodi:role="line"
         id="tspan4995-53"
         x="186.4743"
         y="119.43874"
         style="font-size:4.93888903px;stroke-width:0.26458332">Florey</tspan></text>
    <text
       xml:space="preserve"
       style="font-style:normal;font-weight:normal;font-size:10.58333302px;line-height:1.25;font-family:sans-serif;letter-spacing:0px;word-spacing:0px;fill:#000000;fill-opacity:1;stroke:none;stroke-width:0.26458332"
       x="107.39246"
       y="111.91541"
       id="text4997-14"><tspan
         sodipodi:role="line"
         id="tspan4995-9"
         x="107.39246"
         y="111.91541"
         style="font-size:4.93888903px;stroke-width:0.26458332">Latham</tspan></text>
    <text
       xml:space="preserve"
       style="font-style:normal;font-weight:normal;font-size:10.58333302px;line-height:1.25;font-family:sans-serif;letter-spacing:0px;word-spacing:0px;fill:#000000;fill-opacity:1;stroke:none;stroke-width:0.26458332"
       x="25.266415"
       y="142.67104"
       id="text4997-0"><tspan
         sodipodi:role="line"
         id="tspan4995-00"
         x="25.266415"
         y="142.67104"
         style="font-size:4.93888903px;stroke-width:0.26458332">Macgregor</tspan></text>
    <text
       xml:space="preserve"
       style="font-style:normal;font-weight:normal;font-size:10.58333302px;line-height:1.25;font-family:sans-serif;letter-spacing:0px;word-spacing:0px;fill:#000000;fill-opacity:1;stroke:none;stroke-width:0.26458332"
       x="5.6142402"
       y="20.961863"
       id="text4997-4"
       inkscape:transform-center-x="5.0163061"
       inkscape:transform-center-y="-0.79203994"><tspan
         sodipodi:role="line"
         id="tspan4995-19"
         x="5.6142402"
         y="20.961863"
         style="font-size:4.93888903px;stroke-width:0.26458332">Dunlop</tspan></text>
    <text
       xml:space="preserve"
       style="font-style:normal;font-weight:normal;font-size:10.58333302px;line-height:1.25;font-family:sans-serif;letter-spacing:0px;word-spacing:0px;fill:#000000;fill-opacity:1;stroke:none;stroke-width:0.26458332"
       x="-90.903625"
       y="49.512928"
       id="text4997-43"
       transform="rotate(-89.64454)"><tspan
         sodipodi:role="line"
         id="tspan4995-45"
         x="-90.903625"
         y="49.512928"
         style="font-size:4.93888903px;stroke-width:0.26458332">Charnwood</tspan></text>
    <text
       xml:space="preserve"
       style="font-style:normal;font-weight:normal;font-size:10.58333302px;line-height:1.25;font-family:sans-serif;letter-spacing:0px;word-spacing:0px;fill:#000000;fill-opacity:1;stroke:none;stroke-width:0.26458332"
       x="135.51579"
       y="39.574997"
       id="text4997-08"
       inkscape:transform-center-x="13.992854"
       inkscape:transform-center-y="0.2640245"><tspan
         sodipodi:role="line"
         id="tspan4995-67"
         x="135.51579"
         y="39.574997"
         style="font-size:4.93888903px;stroke-width:0.26458332">Fraser</tspan></text>
    <text
       xml:space="preserve"
       style="font-style:normal;font-weight:normal;font-size:10.58333302px;line-height:1.25;font-family:sans-serif;letter-spacing:0px;word-spacing:0px;fill:#000000;fill-opacity:1;stroke:none;stroke-width:0.26458332"
       x="165.87202"
       y="8.9491301"
       id="text4997-39"><tspan
         sodipodi:role="line"
         id="tspan4995-24"
         x="165.87202"
         y="8.9491301"
         style="font-size:4.93888903px;stroke-width:0.26458332">Spence</tspan></text>
    <text
       xml:space="preserve"
       style="font-style:normal;font-weight:normal;font-size:10.58333302px;line-height:1.25;font-family:sans-serif;letter-spacing:0px;word-spacing:0px;fill:#000000;fill-opacity:1;stroke:none;stroke-width:0.26458332"
       x="181.19284"
       y="57.262943"
       id="text4997-41"><tspan
         sodipodi:role="line"
         id="tspan4995-36"
         x="181.19284"
         y="57.262943"
         style="font-size:4.93888903px;stroke-width:0.26458332">Melba</tspan></text>
    <text
       xml:space="preserve"
       style="font-style:normal;font-weight:normal;font-size:10.58333302px;line-height:1.25;font-family:sans-serif;letter-spacing:0px;word-spacing:0px;fill:#000000;fill-opacity:1;stroke:none;stroke-width:0.26458332"
       x="250.89647"
       y="21.752775"
       id="text4997-32"><tspan
         sodipodi:role="line"
         id="tspan4995-11"
         x="250.89647"
         y="21.752775"
         style="font-size:4.93888903px;stroke-width:0.26458332">Evatt</tspan></text>
    <text
       xml:space="preserve"
       style="font-style:normal;font-weight:normal;font-size:10.58333302px;line-height:1.25;font-family:sans-serif;letter-spacing:0px;word-spacing:0px;fill:#000000;fill-opacity:1;stroke:none;stroke-width:0.26458332"
       x="257.63345"
       y="102.41196"
       id="text4997-47"><tspan
         sodipodi:role="line"
         id="tspan4995-51"
         x="257.63345"
         y="102.41196"
         style="font-size:4.93888903px;stroke-width:0.26458332">McKellar</tspan></text>
    <text
       xml:space="preserve"
       style="font-style:normal;font-weight:normal;font-size:10.58333302px;line-height:1.25;font-family:sans-serif;letter-spacing:0px;word-spacing:0px;fill:#000000;fill-opacity:1;stroke:none;stroke-width:0.26458332"
       x="293.65582"
       y="27.95829"
       id="text4997-31"><tspan
         sodipodi:role="line"
         id="tspan4995-26"
         x="293.65582"
         y="27.95829"
         style="font-size:4.93888903px;stroke-width:0.26458332">Giralang</tspan></text>
    <text
       xml:space="preserve"
       style="font-style:normal;font-weight:normal;font-size:10.58333302px;line-height:1.25;font-family:sans-serif;letter-spacing:0px;word-spacing:0px;fill:#000000;fill-opacity:1;stroke:none;stroke-width:0.26458332"
       x="357.1517"
       y="59.640217"
       id="text4997-34"><tspan
         sodipodi:role="line"
         id="tspan4995-07"
         x="357.1517"
         y="59.640217"
         style="font-size:4.93888903px;stroke-width:0.26458332">Kaleen</tspan></text>
  </g>
</svg>
